<mxfile host="app.diagrams.net" modified="2023-11-27T13:04:49.898Z" agent="Mozilla/5.0 (Macintosh; Intel Mac OS X 10_15_7) AppleWebKit/605.1.15 (KHTML, like Gecko) Version/17.1 Safari/605.1.15" etag="dn0_RFPpaoxkbEuHkG-4" version="22.1.4" type="github">
  <diagram id="R2lEEEUBdFMjLlhIrx00" name="Page-1">
    <mxGraphModel dx="3435" dy="1018" grid="1" gridSize="10" guides="1" tooltips="1" connect="1" arrows="1" fold="1" page="1" pageScale="1" pageWidth="850" pageHeight="1100" math="0" shadow="0" extFonts="Permanent Marker^https://fonts.googleapis.com/css?family=Permanent+Marker">
      <root>
        <mxCell id="0" />
        <mxCell id="1" parent="0" />
        <mxCell id="PxeCh9MpIZ74LcTr3tRD-33" value="UTENTE" style="whiteSpace=wrap;html=1;align=center;rotation=0;" parent="1" vertex="1">
          <mxGeometry x="-1190" y="270" width="100" height="40" as="geometry" />
        </mxCell>
        <mxCell id="PxeCh9MpIZ74LcTr3tRD-34" value="" style="endArrow=none;html=1;rounded=0;entryX=0.5;entryY=1;entryDx=0;entryDy=0;" parent="1" target="PxeCh9MpIZ74LcTr3tRD-35" edge="1">
          <mxGeometry relative="1" as="geometry">
            <mxPoint x="-1170" y="270" as="sourcePoint" />
            <mxPoint x="-1180" y="220" as="targetPoint" />
          </mxGeometry>
        </mxCell>
        <mxCell id="PxeCh9MpIZ74LcTr3tRD-35" value="nome" style="ellipse;whiteSpace=wrap;html=1;align=center;" parent="1" vertex="1">
          <mxGeometry x="-1320" y="160" width="100" height="40" as="geometry" />
        </mxCell>
        <mxCell id="PxeCh9MpIZ74LcTr3tRD-36" value="cognome" style="ellipse;whiteSpace=wrap;html=1;align=center;" parent="1" vertex="1">
          <mxGeometry x="-1210" y="140" width="100" height="40" as="geometry" />
        </mxCell>
        <mxCell id="PxeCh9MpIZ74LcTr3tRD-39" value="" style="endArrow=none;html=1;rounded=0;entryX=0.5;entryY=1;entryDx=0;entryDy=0;exitX=0.5;exitY=0;exitDx=0;exitDy=0;" parent="1" source="PxeCh9MpIZ74LcTr3tRD-33" target="PxeCh9MpIZ74LcTr3tRD-36" edge="1">
          <mxGeometry relative="1" as="geometry">
            <mxPoint x="-1170" y="310" as="sourcePoint" />
            <mxPoint x="-1010" y="310" as="targetPoint" />
          </mxGeometry>
        </mxCell>
        <mxCell id="PxeCh9MpIZ74LcTr3tRD-42" value="" style="endArrow=none;html=1;rounded=0;exitX=1;exitY=0.5;exitDx=0;exitDy=0;entryX=0;entryY=0.5;entryDx=0;entryDy=0;" parent="1" source="PxeCh9MpIZ74LcTr3tRD-114" target="PxeCh9MpIZ74LcTr3tRD-33" edge="1">
          <mxGeometry relative="1" as="geometry">
            <mxPoint x="-1240" y="240" as="sourcePoint" />
            <mxPoint x="-1200" y="320" as="targetPoint" />
          </mxGeometry>
        </mxCell>
        <mxCell id="PxeCh9MpIZ74LcTr3tRD-44" value="telefono" style="ellipse;whiteSpace=wrap;html=1;align=center;" parent="1" vertex="1">
          <mxGeometry x="-1350" y="290" width="100" height="40" as="geometry" />
        </mxCell>
        <mxCell id="PxeCh9MpIZ74LcTr3tRD-45" value="" style="endArrow=none;html=1;rounded=0;exitX=1;exitY=0.5;exitDx=0;exitDy=0;entryX=0;entryY=0.75;entryDx=0;entryDy=0;" parent="1" source="PxeCh9MpIZ74LcTr3tRD-44" target="PxeCh9MpIZ74LcTr3tRD-33" edge="1">
          <mxGeometry relative="1" as="geometry">
            <mxPoint x="-1360" y="320" as="sourcePoint" />
            <mxPoint x="-1200" y="320" as="targetPoint" />
          </mxGeometry>
        </mxCell>
        <mxCell id="PxeCh9MpIZ74LcTr3tRD-47" value="indirizzo" style="ellipse;whiteSpace=wrap;html=1;align=center;" parent="1" vertex="1">
          <mxGeometry x="-1370" y="390" width="100" height="40" as="geometry" />
        </mxCell>
        <mxCell id="PxeCh9MpIZ74LcTr3tRD-48" value="email" style="ellipse;whiteSpace=wrap;html=1;align=center;" parent="1" vertex="1">
          <mxGeometry x="-1020" y="230" width="100" height="40" as="geometry" />
        </mxCell>
        <mxCell id="PxeCh9MpIZ74LcTr3tRD-49" value="password" style="ellipse;whiteSpace=wrap;html=1;align=center;" parent="1" vertex="1">
          <mxGeometry x="-1100" y="135" width="100" height="40" as="geometry" />
        </mxCell>
        <mxCell id="PxeCh9MpIZ74LcTr3tRD-50" value="dataNascita" style="ellipse;whiteSpace=wrap;html=1;align=center;" parent="1" vertex="1">
          <mxGeometry x="-1030" y="175" width="100" height="40" as="geometry" />
        </mxCell>
        <mxCell id="PxeCh9MpIZ74LcTr3tRD-52" value="" style="endArrow=none;html=1;rounded=0;exitX=1;exitY=0.5;exitDx=0;exitDy=0;entryX=0.25;entryY=1;entryDx=0;entryDy=0;" parent="1" source="PxeCh9MpIZ74LcTr3tRD-47" target="PxeCh9MpIZ74LcTr3tRD-33" edge="1">
          <mxGeometry relative="1" as="geometry">
            <mxPoint x="-1300" y="450" as="sourcePoint" />
            <mxPoint x="-1240" y="320" as="targetPoint" />
          </mxGeometry>
        </mxCell>
        <mxCell id="PxeCh9MpIZ74LcTr3tRD-53" value="" style="endArrow=none;html=1;rounded=0;entryX=1;entryY=0.5;entryDx=0;entryDy=0;" parent="1" target="PxeCh9MpIZ74LcTr3tRD-33" edge="1">
          <mxGeometry relative="1" as="geometry">
            <mxPoint x="-1020" y="260" as="sourcePoint" />
            <mxPoint x="-1160" y="310" as="targetPoint" />
          </mxGeometry>
        </mxCell>
        <mxCell id="PxeCh9MpIZ74LcTr3tRD-54" value="" style="endArrow=none;html=1;rounded=0;exitX=1;exitY=0;exitDx=0;exitDy=0;entryX=0;entryY=0.5;entryDx=0;entryDy=0;" parent="1" source="PxeCh9MpIZ74LcTr3tRD-33" target="PxeCh9MpIZ74LcTr3tRD-50" edge="1">
          <mxGeometry relative="1" as="geometry">
            <mxPoint x="-1400" y="320" as="sourcePoint" />
            <mxPoint x="-1240" y="320" as="targetPoint" />
          </mxGeometry>
        </mxCell>
        <mxCell id="PxeCh9MpIZ74LcTr3tRD-55" value="" style="endArrow=none;html=1;rounded=0;exitX=0.75;exitY=0;exitDx=0;exitDy=0;entryX=0;entryY=1;entryDx=0;entryDy=0;" parent="1" source="PxeCh9MpIZ74LcTr3tRD-33" target="PxeCh9MpIZ74LcTr3tRD-49" edge="1">
          <mxGeometry relative="1" as="geometry">
            <mxPoint x="-1400" y="320" as="sourcePoint" />
            <mxPoint x="-1240" y="320" as="targetPoint" />
          </mxGeometry>
        </mxCell>
        <mxCell id="PxeCh9MpIZ74LcTr3tRD-56" value="CARTA" style="whiteSpace=wrap;html=1;align=center;rotation=0;" parent="1" vertex="1">
          <mxGeometry x="-1190" y="680" width="100" height="40" as="geometry" />
        </mxCell>
        <mxCell id="PxeCh9MpIZ74LcTr3tRD-57" value="" style="endArrow=none;html=1;rounded=0;entryX=0.5;entryY=1;entryDx=0;entryDy=0;exitX=0;exitY=0;exitDx=0;exitDy=0;" parent="1" target="PxeCh9MpIZ74LcTr3tRD-117" edge="1" source="PxeCh9MpIZ74LcTr3tRD-56">
          <mxGeometry relative="1" as="geometry">
            <mxPoint x="-1170" y="680" as="sourcePoint" />
            <mxPoint x="-1250" y="600" as="targetPoint" />
          </mxGeometry>
        </mxCell>
        <mxCell id="PxeCh9MpIZ74LcTr3tRD-59" value="intestatario" style="ellipse;whiteSpace=wrap;html=1;align=center;" parent="1" vertex="1">
          <mxGeometry x="-1020" y="790" width="100" height="40" as="geometry" />
        </mxCell>
        <mxCell id="PxeCh9MpIZ74LcTr3tRD-60" value="" style="endArrow=none;html=1;rounded=0;entryX=0;entryY=0;entryDx=0;entryDy=0;exitX=1;exitY=1;exitDx=0;exitDy=0;" parent="1" source="PxeCh9MpIZ74LcTr3tRD-56" target="PxeCh9MpIZ74LcTr3tRD-59" edge="1">
          <mxGeometry relative="1" as="geometry">
            <mxPoint x="-1090" y="700" as="sourcePoint" />
            <mxPoint x="-1010" y="720" as="targetPoint" />
          </mxGeometry>
        </mxCell>
        <mxCell id="PxeCh9MpIZ74LcTr3tRD-61" value="Numero_carta" style="ellipse;whiteSpace=wrap;html=1;align=center;" parent="1" vertex="1">
          <mxGeometry x="-1390" y="660" width="100" height="40" as="geometry" />
        </mxCell>
        <mxCell id="PxeCh9MpIZ74LcTr3tRD-62" value="" style="endArrow=none;html=1;rounded=0;exitX=1;exitY=0.5;exitDx=0;exitDy=0;entryX=0;entryY=0.5;entryDx=0;entryDy=0;" parent="1" source="PxeCh9MpIZ74LcTr3tRD-61" target="PxeCh9MpIZ74LcTr3tRD-56" edge="1">
          <mxGeometry relative="1" as="geometry">
            <mxPoint x="-1360" y="730" as="sourcePoint" />
            <mxPoint x="-1200" y="730" as="targetPoint" />
          </mxGeometry>
        </mxCell>
        <mxCell id="PxeCh9MpIZ74LcTr3tRD-63" value="scadenza" style="ellipse;whiteSpace=wrap;html=1;align=center;" parent="1" vertex="1">
          <mxGeometry x="-1380" y="720" width="100" height="40" as="geometry" />
        </mxCell>
        <mxCell id="PxeCh9MpIZ74LcTr3tRD-64" value="" style="endArrow=none;html=1;rounded=0;exitX=1;exitY=0.5;exitDx=0;exitDy=0;entryX=0;entryY=0.75;entryDx=0;entryDy=0;" parent="1" source="PxeCh9MpIZ74LcTr3tRD-63" target="PxeCh9MpIZ74LcTr3tRD-56" edge="1">
          <mxGeometry relative="1" as="geometry">
            <mxPoint x="-1360" y="730" as="sourcePoint" />
            <mxPoint x="-1200" y="730" as="targetPoint" />
          </mxGeometry>
        </mxCell>
        <mxCell id="PxeCh9MpIZ74LcTr3tRD-65" value="saldo" style="ellipse;whiteSpace=wrap;html=1;align=center;" parent="1" vertex="1">
          <mxGeometry x="-1330" y="780" width="100" height="40" as="geometry" />
        </mxCell>
        <mxCell id="PxeCh9MpIZ74LcTr3tRD-66" value="PIN" style="ellipse;whiteSpace=wrap;html=1;align=center;" parent="1" vertex="1">
          <mxGeometry x="-1235" y="810" width="100" height="40" as="geometry" />
        </mxCell>
        <mxCell id="PxeCh9MpIZ74LcTr3tRD-68" value="CVV" style="ellipse;whiteSpace=wrap;html=1;align=center;" parent="1" vertex="1">
          <mxGeometry x="-1120" y="810" width="100" height="40" as="geometry" />
        </mxCell>
        <mxCell id="PxeCh9MpIZ74LcTr3tRD-69" value="" style="endArrow=none;html=1;rounded=0;exitX=0.5;exitY=0;exitDx=0;exitDy=0;entryX=0.25;entryY=1;entryDx=0;entryDy=0;" parent="1" source="PxeCh9MpIZ74LcTr3tRD-65" target="PxeCh9MpIZ74LcTr3tRD-56" edge="1">
          <mxGeometry relative="1" as="geometry">
            <mxPoint x="-1400" y="730" as="sourcePoint" />
            <mxPoint x="-1240" y="730" as="targetPoint" />
          </mxGeometry>
        </mxCell>
        <mxCell id="PxeCh9MpIZ74LcTr3tRD-70" value="" style="endArrow=none;html=1;rounded=0;entryX=0.5;entryY=1;entryDx=0;entryDy=0;exitX=0.5;exitY=0;exitDx=0;exitDy=0;" parent="1" source="PxeCh9MpIZ74LcTr3tRD-66" target="PxeCh9MpIZ74LcTr3tRD-56" edge="1">
          <mxGeometry relative="1" as="geometry">
            <mxPoint x="-1400" y="730" as="sourcePoint" />
            <mxPoint x="-1240" y="730" as="targetPoint" />
          </mxGeometry>
        </mxCell>
        <mxCell id="PxeCh9MpIZ74LcTr3tRD-71" value="" style="endArrow=none;html=1;rounded=0;exitX=0.75;exitY=1;exitDx=0;exitDy=0;entryX=0.5;entryY=0;entryDx=0;entryDy=0;" parent="1" source="PxeCh9MpIZ74LcTr3tRD-56" target="PxeCh9MpIZ74LcTr3tRD-68" edge="1">
          <mxGeometry relative="1" as="geometry">
            <mxPoint x="-1400" y="730" as="sourcePoint" />
            <mxPoint x="-1240" y="730" as="targetPoint" />
          </mxGeometry>
        </mxCell>
        <mxCell id="PxeCh9MpIZ74LcTr3tRD-90" value="FAMIGLIA" style="whiteSpace=wrap;html=1;align=center;" parent="1" vertex="1">
          <mxGeometry x="-580" y="270" width="100" height="40" as="geometry" />
        </mxCell>
        <mxCell id="PxeCh9MpIZ74LcTr3tRD-91" value="NomeGruppo" style="ellipse;whiteSpace=wrap;html=1;align=center;" parent="1" vertex="1">
          <mxGeometry x="-510" y="360" width="100" height="40" as="geometry" />
        </mxCell>
        <mxCell id="PxeCh9MpIZ74LcTr3tRD-93" value="" style="endArrow=none;html=1;rounded=0;exitX=0.5;exitY=1;exitDx=0;exitDy=0;entryX=0.5;entryY=0;entryDx=0;entryDy=0;" parent="1" source="PxeCh9MpIZ74LcTr3tRD-90" target="PxeCh9MpIZ74LcTr3tRD-91" edge="1">
          <mxGeometry relative="1" as="geometry">
            <mxPoint x="-580" y="460" as="sourcePoint" />
            <mxPoint x="-420" y="460" as="targetPoint" />
          </mxGeometry>
        </mxCell>
        <mxCell id="PxeCh9MpIZ74LcTr3tRD-95" value="" style="endArrow=none;html=1;rounded=0;exitX=1;exitY=0.5;exitDx=0;exitDy=0;entryX=0.5;entryY=0;entryDx=0;entryDy=0;" parent="1" source="PxeCh9MpIZ74LcTr3tRD-90" target="PxeCh9MpIZ74LcTr3tRD-118" edge="1">
          <mxGeometry relative="1" as="geometry">
            <mxPoint x="-420" y="460" as="sourcePoint" />
            <mxPoint x="-360" y="300" as="targetPoint" />
          </mxGeometry>
        </mxCell>
        <mxCell id="PxeCh9MpIZ74LcTr3tRD-96" value="TRANSAZIONE" style="whiteSpace=wrap;html=1;align=center;" parent="1" vertex="1">
          <mxGeometry x="-680" y="680" width="100" height="40" as="geometry" />
        </mxCell>
        <mxCell id="PxeCh9MpIZ74LcTr3tRD-98" value="importo" style="ellipse;whiteSpace=wrap;html=1;align=center;" parent="1" vertex="1">
          <mxGeometry x="-780" y="805" width="100" height="50" as="geometry" />
        </mxCell>
        <mxCell id="PxeCh9MpIZ74LcTr3tRD-99" value="" style="endArrow=none;html=1;rounded=0;entryX=0.5;entryY=0;entryDx=0;entryDy=0;exitX=0.5;exitY=1;exitDx=0;exitDy=0;" parent="1" source="PxeCh9MpIZ74LcTr3tRD-96" target="PxeCh9MpIZ74LcTr3tRD-115" edge="1">
          <mxGeometry relative="1" as="geometry">
            <mxPoint x="-605" y="720" as="sourcePoint" />
            <mxPoint x="-570" y="800" as="targetPoint" />
          </mxGeometry>
        </mxCell>
        <mxCell id="PxeCh9MpIZ74LcTr3tRD-100" value="" style="endArrow=none;html=1;rounded=0;entryX=0.5;entryY=0;entryDx=0;entryDy=0;exitX=0.25;exitY=1;exitDx=0;exitDy=0;" parent="1" source="PxeCh9MpIZ74LcTr3tRD-96" target="PxeCh9MpIZ74LcTr3tRD-98" edge="1">
          <mxGeometry relative="1" as="geometry">
            <mxPoint x="-630" y="720" as="sourcePoint" />
            <mxPoint x="-370" y="900" as="targetPoint" />
          </mxGeometry>
        </mxCell>
        <mxCell id="PxeCh9MpIZ74LcTr3tRD-102" value="DataTransazione" style="ellipse;whiteSpace=wrap;html=1;align=center;" parent="1" vertex="1">
          <mxGeometry x="-590" y="805" width="100" height="40" as="geometry" />
        </mxCell>
        <mxCell id="PxeCh9MpIZ74LcTr3tRD-103" value="" style="endArrow=none;html=1;rounded=0;exitX=0.75;exitY=1;exitDx=0;exitDy=0;entryX=0.5;entryY=0;entryDx=0;entryDy=0;" parent="1" source="PxeCh9MpIZ74LcTr3tRD-96" target="PxeCh9MpIZ74LcTr3tRD-102" edge="1">
          <mxGeometry relative="1" as="geometry">
            <mxPoint x="-1130" y="810" as="sourcePoint" />
            <mxPoint x="-540" y="860" as="targetPoint" />
          </mxGeometry>
        </mxCell>
        <mxCell id="PxeCh9MpIZ74LcTr3tRD-106" value="APPARTENEZA" style="shape=rhombus;perimeter=rhombusPerimeter;whiteSpace=wrap;html=1;align=center;" parent="1" vertex="1">
          <mxGeometry x="-850" y="260" width="120" height="60" as="geometry" />
        </mxCell>
        <mxCell id="PxeCh9MpIZ74LcTr3tRD-107" value="PORTAFOGLIO" style="whiteSpace=wrap;html=1;align=center;" parent="1" vertex="1">
          <mxGeometry x="-180" y="680" width="100" height="40" as="geometry" />
        </mxCell>
        <mxCell id="PxeCh9MpIZ74LcTr3tRD-110" value="" style="endArrow=none;html=1;rounded=0;exitX=1;exitY=0.5;exitDx=0;exitDy=0;entryX=0;entryY=0;entryDx=0;entryDy=0;" parent="1" source="PxeCh9MpIZ74LcTr3tRD-107" target="PxeCh9MpIZ74LcTr3tRD-112" edge="1">
          <mxGeometry relative="1" as="geometry">
            <mxPoint x="-180" y="875" as="sourcePoint" />
            <mxPoint x="-60" y="775" as="targetPoint" />
          </mxGeometry>
        </mxCell>
        <mxCell id="PxeCh9MpIZ74LcTr3tRD-112" value="categoria" style="ellipse;shape=doubleEllipse;margin=3;whiteSpace=wrap;html=1;align=center;" parent="1" vertex="1">
          <mxGeometry x="-50" y="740" width="130" height="60" as="geometry" />
        </mxCell>
        <mxCell id="PxeCh9MpIZ74LcTr3tRD-114" value="CodF" style="ellipse;whiteSpace=wrap;html=1;align=center;fontStyle=4;" parent="1" vertex="1">
          <mxGeometry x="-1360" y="225" width="100" height="40" as="geometry" />
        </mxCell>
        <mxCell id="PxeCh9MpIZ74LcTr3tRD-115" value="CodiceTransazione" style="ellipse;whiteSpace=wrap;html=1;align=center;fontStyle=4;" parent="1" vertex="1">
          <mxGeometry x="-690" y="860" width="120" height="50" as="geometry" />
        </mxCell>
        <mxCell id="PxeCh9MpIZ74LcTr3tRD-117" value="IBAN" style="ellipse;whiteSpace=wrap;html=1;align=center;fontStyle=4;" parent="1" vertex="1">
          <mxGeometry x="-1335" y="590" width="100" height="40" as="geometry" />
        </mxCell>
        <mxCell id="PxeCh9MpIZ74LcTr3tRD-118" value="IdGruppo" style="ellipse;whiteSpace=wrap;html=1;align=center;fontStyle=4;" parent="1" vertex="1">
          <mxGeometry x="-400" y="320" width="100" height="40" as="geometry" />
        </mxCell>
        <mxCell id="PxeCh9MpIZ74LcTr3tRD-119" value="svago" style="ellipse;whiteSpace=wrap;html=1;align=center;" parent="1" vertex="1">
          <mxGeometry x="40" y="610" width="100" height="40" as="geometry" />
        </mxCell>
        <mxCell id="PxeCh9MpIZ74LcTr3tRD-120" value="Salute_benessere" style="ellipse;whiteSpace=wrap;html=1;align=center;" parent="1" vertex="1">
          <mxGeometry x="130" y="650" width="100" height="50" as="geometry" />
        </mxCell>
        <mxCell id="PxeCh9MpIZ74LcTr3tRD-121" value="bollette" style="ellipse;whiteSpace=wrap;html=1;align=center;" parent="1" vertex="1">
          <mxGeometry x="180" y="710" width="100" height="40" as="geometry" />
        </mxCell>
        <mxCell id="PxeCh9MpIZ74LcTr3tRD-122" value="alimenti" style="ellipse;whiteSpace=wrap;html=1;align=center;" parent="1" vertex="1">
          <mxGeometry x="190" y="775" width="100" height="45" as="geometry" />
        </mxCell>
        <mxCell id="PxeCh9MpIZ74LcTr3tRD-123" value="altro" style="ellipse;whiteSpace=wrap;html=1;align=center;" parent="1" vertex="1">
          <mxGeometry x="-60" y="875" width="100" height="40" as="geometry" />
        </mxCell>
        <mxCell id="PxeCh9MpIZ74LcTr3tRD-124" value="motori_trasporti" style="ellipse;whiteSpace=wrap;html=1;align=center;" parent="1" vertex="1">
          <mxGeometry x="60" y="870" width="100" height="50" as="geometry" />
        </mxCell>
        <mxCell id="PxeCh9MpIZ74LcTr3tRD-126" value="prelievo_contanti" style="ellipse;whiteSpace=wrap;html=1;align=center;" parent="1" vertex="1">
          <mxGeometry x="160" y="845" width="100" height="50" as="geometry" />
        </mxCell>
        <mxCell id="PxeCh9MpIZ74LcTr3tRD-127" value="" style="endArrow=none;html=1;rounded=0;exitX=0.5;exitY=1;exitDx=0;exitDy=0;entryX=0.5;entryY=0;entryDx=0;entryDy=0;" parent="1" source="PxeCh9MpIZ74LcTr3tRD-119" target="PxeCh9MpIZ74LcTr3tRD-112" edge="1">
          <mxGeometry relative="1" as="geometry">
            <mxPoint y="630" as="sourcePoint" />
            <mxPoint x="160" y="630" as="targetPoint" />
          </mxGeometry>
        </mxCell>
        <mxCell id="PxeCh9MpIZ74LcTr3tRD-128" value="" style="endArrow=none;html=1;rounded=0;exitX=1;exitY=0;exitDx=0;exitDy=0;entryX=0;entryY=0.5;entryDx=0;entryDy=0;" parent="1" source="PxeCh9MpIZ74LcTr3tRD-112" target="PxeCh9MpIZ74LcTr3tRD-120" edge="1">
          <mxGeometry relative="1" as="geometry">
            <mxPoint y="630" as="sourcePoint" />
            <mxPoint x="160" y="630" as="targetPoint" />
          </mxGeometry>
        </mxCell>
        <mxCell id="PxeCh9MpIZ74LcTr3tRD-129" value="" style="endArrow=none;html=1;rounded=0;exitX=1;exitY=0.5;exitDx=0;exitDy=0;entryX=0;entryY=0.5;entryDx=0;entryDy=0;" parent="1" source="PxeCh9MpIZ74LcTr3tRD-112" target="PxeCh9MpIZ74LcTr3tRD-121" edge="1">
          <mxGeometry relative="1" as="geometry">
            <mxPoint y="630" as="sourcePoint" />
            <mxPoint x="160" y="630" as="targetPoint" />
          </mxGeometry>
        </mxCell>
        <mxCell id="PxeCh9MpIZ74LcTr3tRD-130" value="" style="endArrow=none;html=1;rounded=0;exitX=1;exitY=0.5;exitDx=0;exitDy=0;entryX=0;entryY=0.5;entryDx=0;entryDy=0;" parent="1" source="PxeCh9MpIZ74LcTr3tRD-112" target="PxeCh9MpIZ74LcTr3tRD-122" edge="1">
          <mxGeometry relative="1" as="geometry">
            <mxPoint y="630" as="sourcePoint" />
            <mxPoint x="160" y="630" as="targetPoint" />
          </mxGeometry>
        </mxCell>
        <mxCell id="PxeCh9MpIZ74LcTr3tRD-132" value="" style="endArrow=none;html=1;rounded=0;exitX=1;exitY=1;exitDx=0;exitDy=0;entryX=0;entryY=0;entryDx=0;entryDy=0;" parent="1" source="PxeCh9MpIZ74LcTr3tRD-112" target="PxeCh9MpIZ74LcTr3tRD-126" edge="1">
          <mxGeometry relative="1" as="geometry">
            <mxPoint y="630" as="sourcePoint" />
            <mxPoint x="160" y="630" as="targetPoint" />
          </mxGeometry>
        </mxCell>
        <mxCell id="PxeCh9MpIZ74LcTr3tRD-133" value="" style="endArrow=none;html=1;rounded=0;exitX=0.5;exitY=1;exitDx=0;exitDy=0;entryX=0.5;entryY=0;entryDx=0;entryDy=0;" parent="1" source="PxeCh9MpIZ74LcTr3tRD-112" target="PxeCh9MpIZ74LcTr3tRD-124" edge="1">
          <mxGeometry relative="1" as="geometry">
            <mxPoint y="630" as="sourcePoint" />
            <mxPoint x="160" y="630" as="targetPoint" />
          </mxGeometry>
        </mxCell>
        <mxCell id="PxeCh9MpIZ74LcTr3tRD-135" value="nazione" style="ellipse;whiteSpace=wrap;html=1;align=center;" parent="1" vertex="1">
          <mxGeometry x="-1460" y="500" width="100" height="40" as="geometry" />
        </mxCell>
        <mxCell id="PxeCh9MpIZ74LcTr3tRD-136" value="città" style="ellipse;whiteSpace=wrap;html=1;align=center;" parent="1" vertex="1">
          <mxGeometry x="-1550" y="290" width="100" height="40" as="geometry" />
        </mxCell>
        <mxCell id="PxeCh9MpIZ74LcTr3tRD-137" value="CAP" style="ellipse;whiteSpace=wrap;html=1;align=center;" parent="1" vertex="1">
          <mxGeometry x="-1560" y="350" width="100" height="40" as="geometry" />
        </mxCell>
        <mxCell id="PxeCh9MpIZ74LcTr3tRD-138" value="via" style="ellipse;whiteSpace=wrap;html=1;align=center;" parent="1" vertex="1">
          <mxGeometry x="-1560" y="410" width="90" height="40" as="geometry" />
        </mxCell>
        <mxCell id="PxeCh9MpIZ74LcTr3tRD-139" value="" style="endArrow=none;html=1;rounded=0;exitX=0.5;exitY=0;exitDx=0;exitDy=0;" parent="1" source="PxeCh9MpIZ74LcTr3tRD-135" edge="1">
          <mxGeometry relative="1" as="geometry">
            <mxPoint x="-1270" y="520" as="sourcePoint" />
            <mxPoint x="-1320" y="430" as="targetPoint" />
          </mxGeometry>
        </mxCell>
        <mxCell id="PxeCh9MpIZ74LcTr3tRD-140" value="" style="endArrow=none;html=1;rounded=0;exitX=0;exitY=0;exitDx=0;exitDy=0;entryX=1;entryY=0.5;entryDx=0;entryDy=0;" parent="1" source="PxeCh9MpIZ74LcTr3tRD-47" target="PxeCh9MpIZ74LcTr3tRD-136" edge="1">
          <mxGeometry relative="1" as="geometry">
            <mxPoint x="-1509" y="469" as="sourcePoint" />
            <mxPoint x="-1410" y="350" as="targetPoint" />
          </mxGeometry>
        </mxCell>
        <mxCell id="PxeCh9MpIZ74LcTr3tRD-141" value="" style="endArrow=none;html=1;rounded=0;exitX=0;exitY=0.5;exitDx=0;exitDy=0;entryX=1;entryY=0.5;entryDx=0;entryDy=0;" parent="1" source="PxeCh9MpIZ74LcTr3tRD-47" target="PxeCh9MpIZ74LcTr3tRD-137" edge="1">
          <mxGeometry relative="1" as="geometry">
            <mxPoint x="-1490" y="490" as="sourcePoint" />
            <mxPoint x="-1410" y="350" as="targetPoint" />
          </mxGeometry>
        </mxCell>
        <mxCell id="PxeCh9MpIZ74LcTr3tRD-142" value="" style="endArrow=none;html=1;rounded=0;exitX=0;exitY=1;exitDx=0;exitDy=0;entryX=1;entryY=0.5;entryDx=0;entryDy=0;" parent="1" source="PxeCh9MpIZ74LcTr3tRD-47" target="PxeCh9MpIZ74LcTr3tRD-138" edge="1">
          <mxGeometry relative="1" as="geometry">
            <mxPoint x="-1509" y="511" as="sourcePoint" />
            <mxPoint x="-1445" y="410" as="targetPoint" />
          </mxGeometry>
        </mxCell>
        <mxCell id="PxeCh9MpIZ74LcTr3tRD-143" value="" style="endArrow=none;html=1;rounded=0;exitX=0.238;exitY=0.947;exitDx=0;exitDy=0;exitPerimeter=0;" parent="1" source="PxeCh9MpIZ74LcTr3tRD-47" target="PxeCh9MpIZ74LcTr3tRD-145" edge="1">
          <mxGeometry relative="1" as="geometry">
            <mxPoint x="-1555" y="520" as="sourcePoint" />
            <mxPoint x="-1360" y="430" as="targetPoint" />
          </mxGeometry>
        </mxCell>
        <mxCell id="PxeCh9MpIZ74LcTr3tRD-145" value="num_civico" style="ellipse;whiteSpace=wrap;html=1;align=center;" parent="1" vertex="1">
          <mxGeometry x="-1560" y="470" width="100" height="40" as="geometry" />
        </mxCell>
        <mxCell id="4aNmiWq_8aErb1ZWAT7Z-3" value="POSSIEDE" style="shape=rhombus;perimeter=rhombusPerimeter;whiteSpace=wrap;html=1;align=center;" vertex="1" parent="1">
          <mxGeometry x="-1200" y="480" width="120" height="60" as="geometry" />
        </mxCell>
        <mxCell id="4aNmiWq_8aErb1ZWAT7Z-4" value="" style="endArrow=none;html=1;rounded=0;entryX=0.5;entryY=1;entryDx=0;entryDy=0;exitX=0.5;exitY=0;exitDx=0;exitDy=0;" edge="1" parent="1" source="4aNmiWq_8aErb1ZWAT7Z-3" target="PxeCh9MpIZ74LcTr3tRD-33">
          <mxGeometry relative="1" as="geometry">
            <mxPoint x="-1190" y="540" as="sourcePoint" />
            <mxPoint x="-1030" y="540" as="targetPoint" />
          </mxGeometry>
        </mxCell>
        <mxCell id="4aNmiWq_8aErb1ZWAT7Z-5" value="" style="endArrow=none;html=1;rounded=0;exitX=0.5;exitY=0;exitDx=0;exitDy=0;entryX=0.5;entryY=1;entryDx=0;entryDy=0;" edge="1" parent="1" source="PxeCh9MpIZ74LcTr3tRD-56" target="4aNmiWq_8aErb1ZWAT7Z-3">
          <mxGeometry relative="1" as="geometry">
            <mxPoint x="-1190" y="540" as="sourcePoint" />
            <mxPoint x="-1030" y="540" as="targetPoint" />
          </mxGeometry>
        </mxCell>
        <mxCell id="4aNmiWq_8aErb1ZWAT7Z-8" value="" style="endArrow=none;html=1;rounded=0;exitX=1;exitY=0.5;exitDx=0;exitDy=0;entryX=0;entryY=0.5;entryDx=0;entryDy=0;" edge="1" parent="1" source="PxeCh9MpIZ74LcTr3tRD-33" target="PxeCh9MpIZ74LcTr3tRD-106">
          <mxGeometry relative="1" as="geometry">
            <mxPoint x="-900" y="330" as="sourcePoint" />
            <mxPoint x="-740" y="330" as="targetPoint" />
          </mxGeometry>
        </mxCell>
        <mxCell id="4aNmiWq_8aErb1ZWAT7Z-9" value="" style="endArrow=none;html=1;rounded=0;entryX=0;entryY=0.5;entryDx=0;entryDy=0;exitX=1;exitY=0.5;exitDx=0;exitDy=0;" edge="1" parent="1" source="PxeCh9MpIZ74LcTr3tRD-106" target="PxeCh9MpIZ74LcTr3tRD-90">
          <mxGeometry relative="1" as="geometry">
            <mxPoint x="-820" y="270" as="sourcePoint" />
            <mxPoint x="-660" y="270" as="targetPoint" />
          </mxGeometry>
        </mxCell>
        <mxCell id="4aNmiWq_8aErb1ZWAT7Z-10" value="EFFETTUA" style="shape=rhombus;perimeter=rhombusPerimeter;whiteSpace=wrap;html=1;align=center;" vertex="1" parent="1">
          <mxGeometry x="-940" y="670" width="120" height="60" as="geometry" />
        </mxCell>
        <mxCell id="4aNmiWq_8aErb1ZWAT7Z-11" value="" style="endArrow=none;html=1;rounded=0;exitX=1;exitY=0.5;exitDx=0;exitDy=0;entryX=0;entryY=0.5;entryDx=0;entryDy=0;" edge="1" parent="1" source="PxeCh9MpIZ74LcTr3tRD-56" target="4aNmiWq_8aErb1ZWAT7Z-10">
          <mxGeometry relative="1" as="geometry">
            <mxPoint x="-920" y="610" as="sourcePoint" />
            <mxPoint x="-760" y="610" as="targetPoint" />
          </mxGeometry>
        </mxCell>
        <mxCell id="4aNmiWq_8aErb1ZWAT7Z-12" value="" style="endArrow=none;html=1;rounded=0;exitX=1;exitY=0.5;exitDx=0;exitDy=0;entryX=0;entryY=0.5;entryDx=0;entryDy=0;" edge="1" parent="1" source="4aNmiWq_8aErb1ZWAT7Z-10" target="PxeCh9MpIZ74LcTr3tRD-96">
          <mxGeometry relative="1" as="geometry">
            <mxPoint x="-950" y="610" as="sourcePoint" />
            <mxPoint x="-790" y="610" as="targetPoint" />
          </mxGeometry>
        </mxCell>
        <mxCell id="4aNmiWq_8aErb1ZWAT7Z-13" value="APPARTIENE" style="shape=rhombus;perimeter=rhombusPerimeter;whiteSpace=wrap;html=1;align=center;" vertex="1" parent="1">
          <mxGeometry x="-440" y="670" width="120" height="60" as="geometry" />
        </mxCell>
        <mxCell id="4aNmiWq_8aErb1ZWAT7Z-16" value="" style="endArrow=none;html=1;rounded=0;exitX=0.5;exitY=0;exitDx=0;exitDy=0;" edge="1" parent="1" source="PxeCh9MpIZ74LcTr3tRD-123" target="PxeCh9MpIZ74LcTr3tRD-112">
          <mxGeometry relative="1" as="geometry">
            <mxPoint x="-260" y="780" as="sourcePoint" />
            <mxPoint x="-100" y="780" as="targetPoint" />
          </mxGeometry>
        </mxCell>
        <mxCell id="4aNmiWq_8aErb1ZWAT7Z-17" value="" style="endArrow=none;html=1;rounded=0;exitX=1;exitY=0.5;exitDx=0;exitDy=0;entryX=0;entryY=0.5;entryDx=0;entryDy=0;" edge="1" parent="1" source="4aNmiWq_8aErb1ZWAT7Z-13" target="PxeCh9MpIZ74LcTr3tRD-107">
          <mxGeometry relative="1" as="geometry">
            <mxPoint x="-330" y="780" as="sourcePoint" />
            <mxPoint x="-170" y="780" as="targetPoint" />
          </mxGeometry>
        </mxCell>
        <mxCell id="4aNmiWq_8aErb1ZWAT7Z-18" value="" style="endArrow=none;html=1;rounded=0;exitX=1;exitY=0.5;exitDx=0;exitDy=0;entryX=0;entryY=0.5;entryDx=0;entryDy=0;" edge="1" parent="1" source="PxeCh9MpIZ74LcTr3tRD-96" target="4aNmiWq_8aErb1ZWAT7Z-13">
          <mxGeometry relative="1" as="geometry">
            <mxPoint x="-500" y="780" as="sourcePoint" />
            <mxPoint x="-340" y="780" as="targetPoint" />
          </mxGeometry>
        </mxCell>
      </root>
    </mxGraphModel>
  </diagram>
</mxfile>
